<svg xmlns="http://www.w3.org/2000/svg" viewBox="0 0 64 64">
  <defs>
    <linearGradient id="bg" x1="0" y1="0" x2="1" y2="1">
      <stop offset="0%" stop-color="#6366F1"/>
      <stop offset="100%" stop-color="#8B5CF6"/>
    </linearGradient>
  </defs>
  <rect width="64" height="64" rx="16" fill="url(#bg)"/>
  <path d="M43 19c-4-6-16-7-22 1-7 10 0 25 11 25 5 0 9-2 12-5V30H32v7h5c-2 2-4 2-6 2-6 0-10-5-10-11s4-11 11-11c3 0 6 1 8 4z" fill="#fff"/>
  <path d="M45 10c6 1 9 5 9 11-6 0-10-3-11-8z" fill="#F59E0B"/>
</svg>
